<svg width="50" height="50" viewBox="0 0 50 50" fill="none" xmlns="http://www.w3.org/2000/svg">
<mask id="mask0_76_607" style="mask-type:alpha" maskUnits="userSpaceOnUse" x="0" y="0" width="50" height="50">
<rect width="50" height="50" fill="currentColor"/>
</mask>
<g mask="url(#mask0_76_607)">
<path d="M27.0834 26.2501V18.7501C27.0834 18.1598 26.8838 17.665 26.4845 17.2657C26.0851 16.8664 25.5904 16.6667 25.0001 16.6667C24.4098 16.6667 23.915 16.8664 23.5157 17.2657C23.1164 17.665 22.9167 18.1598 22.9167 18.7501V27.0313C22.9167 27.3091 22.9688 27.5782 23.073 27.8386C23.1772 28.099 23.3334 28.3334 23.5417 28.5417L29.3751 34.3751C29.757 34.757 30.2431 34.948 30.8334 34.948C31.4237 34.948 31.9098 34.757 32.2917 34.3751C32.6737 33.9931 32.8647 33.507 32.8647 32.9167C32.8647 32.3265 32.6737 31.8403 32.2917 31.4584L27.0834 26.2501ZM25.0001 45.8334C22.3959 45.8334 19.9567 45.3386 17.6824 44.349C15.4081 43.3594 13.4289 42.0226 11.7449 40.3386C10.0608 38.6546 8.72404 36.6754 7.73446 34.4011C6.74487 32.1268 6.25008 29.6876 6.25008 27.0834C6.25008 24.4792 6.74487 22.04 7.73446 19.7657C8.72404 17.4914 10.0608 15.5122 11.7449 13.8282C13.4289 12.1442 15.4081 10.8074 17.6824 9.81777C19.9567 8.82819 22.3959 8.33339 25.0001 8.33339C27.6042 8.33339 30.0435 8.82819 32.3178 9.81777C34.5921 10.8074 36.5713 12.1442 38.2553 13.8282C39.9393 15.5122 41.2761 17.4914 42.2657 19.7657C43.2553 22.04 43.7501 24.4792 43.7501 27.0834C43.7501 29.6876 43.2553 32.1268 42.2657 34.4011C41.2761 36.6754 39.9393 38.6546 38.2553 40.3386C36.5713 42.0226 34.5921 43.3594 32.3178 44.349C30.0435 45.3386 27.6042 45.8334 25.0001 45.8334ZM4.27091 15.2084C3.88897 14.8265 3.698 14.3403 3.698 13.7501C3.698 13.1598 3.88897 12.6737 4.27091 12.2917L10.2084 6.35423C10.5904 5.97228 11.0765 5.78131 11.6667 5.78131C12.257 5.78131 12.7431 5.97228 13.1251 6.35423C13.507 6.73617 13.698 7.22228 13.698 7.81256C13.698 8.40284 13.507 8.88895 13.1251 9.27089L7.18758 15.2084C6.80564 15.5903 6.31953 15.7813 5.72925 15.7813C5.13897 15.7813 4.65286 15.5903 4.27091 15.2084ZM45.7292 15.2084C45.3473 15.5903 44.8612 15.7813 44.2709 15.7813C43.6806 15.7813 43.1945 15.5903 42.8126 15.2084L36.8751 9.27089C36.4931 8.88895 36.3022 8.40284 36.3022 7.81256C36.3022 7.22228 36.4931 6.73617 36.8751 6.35423C37.257 5.97228 37.7431 5.78131 38.3334 5.78131C38.9237 5.78131 39.4098 5.97228 39.7917 6.35423L45.7292 12.2917C46.1112 12.6737 46.3022 13.1598 46.3022 13.7501C46.3022 14.3403 46.1112 14.8265 45.7292 15.2084ZM25.0001 41.6667C29.0626 41.6667 32.5088 40.2518 35.3386 37.4219C38.1685 34.5921 39.5834 31.1459 39.5834 27.0834C39.5834 23.0209 38.1685 19.5747 35.3386 16.7449C32.5088 13.915 29.0626 12.5001 25.0001 12.5001C20.9376 12.5001 17.4914 13.915 14.6615 16.7449C11.8317 19.5747 10.4167 23.0209 10.4167 27.0834C10.4167 31.1459 11.8317 34.5921 14.6615 37.4219C17.4914 40.2518 20.9376 41.6667 25.0001 41.6667Z" fill="currentColor"/>
</g>
</svg>
