<svg width="50" height="50" viewBox="0 0 50 50" fill="none" xmlns="http://www.w3.org/2000/svg">
<mask id="mask0_76_571" style="mask-type:alpha" maskUnits="userSpaceOnUse" x="0" y="0" width="50" height="50">
<rect width="50" height="50" fill="black"/>
</mask>
<g mask="url(#mask0_76_571)">
<path d="M11.8054 40.2778H19.0972V29.1667C19.0972 28.6748 19.2635 28.2625 19.5963 27.9297C19.929 27.597 20.3413 27.4306 20.8333 27.4306H29.1666C29.6585 27.4306 30.0708 27.597 30.4036 27.9297C30.7363 28.2625 30.9027 28.6748 30.9027 29.1667V40.2778H38.1944V20.4861L24.9999 10.5903L11.8054 20.4861V40.2778ZM8.33325 40.2778V20.4861C8.33325 19.9364 8.45622 19.4155 8.70216 18.9236C8.94813 18.4318 9.28813 18.0267 9.72216 17.7084L22.9166 7.81253C23.5226 7.34958 24.2152 7.1181 24.9943 7.1181C25.7735 7.1181 26.4698 7.34958 27.0833 7.81253L40.2777 17.7084C40.7117 18.0267 41.0517 18.4318 41.2977 18.9236C41.5436 19.4155 41.6666 19.9364 41.6666 20.4861V40.2778C41.6666 41.2327 41.3266 42.0501 40.6466 42.7301C39.9667 43.41 39.1493 43.75 38.1944 43.75H29.1666C28.6747 43.75 28.2624 43.5837 27.9296 43.2509C27.5969 42.9181 27.4305 42.5058 27.4305 42.0139V30.9028H22.5693V42.0139C22.5693 42.5058 22.403 42.9181 22.0702 43.2509C21.7375 43.5837 21.3252 43.75 20.8333 43.75H11.8054C10.8506 43.75 10.0332 43.41 9.3532 42.7301C8.67323 42.0501 8.33325 41.2327 8.33325 40.2778Z" fill="black"/>
</g>
</svg>
