<svg width="50" height="50" viewBox="0 0 50 50" fill="none" xmlns="http://www.w3.org/2000/svg">
<mask id="mask0_76_601" style="mask-type:alpha" maskUnits="userSpaceOnUse" x="0" y="0" width="50" height="50">
<rect width="50" height="50" fill="#D9D9D9"/>
</mask>
<g mask="url(#mask0_76_601)">
<path d="M19.7917 33.3333C16.0069 33.3333 12.8038 32.0226 10.1823 29.401C7.56076 26.7795 6.25 23.5764 6.25 19.7917C6.25 16.0069 7.56076 12.8038 10.1823 10.1823C12.8038 7.56076 16.0069 6.25 19.7917 6.25C23.5764 6.25 26.7795 7.56076 29.401 10.1823C32.0226 12.8038 33.3333 16.0069 33.3333 19.7917C33.3333 21.3194 33.0903 22.7604 32.6042 24.1146C32.1181 25.4687 31.4583 26.6667 30.625 27.7083L42.2917 39.375C42.6736 39.7569 42.8646 40.2431 42.8646 40.8333C42.8646 41.4236 42.6736 41.9097 42.2917 42.2917C41.9097 42.6736 41.4236 42.8646 40.8333 42.8646C40.2431 42.8646 39.7569 42.6736 39.375 42.2917L27.7083 30.625C26.6667 31.4583 25.4687 32.1181 24.1146 32.6042C22.7604 33.0903 21.3194 33.3333 19.7917 33.3333ZM19.7917 29.1667C22.3958 29.1667 24.6094 28.2552 26.4323 26.4323C28.2552 24.6094 29.1667 22.3958 29.1667 19.7917C29.1667 17.1875 28.2552 14.974 26.4323 13.151C24.6094 11.3281 22.3958 10.4167 19.7917 10.4167C17.1875 10.4167 14.974 11.3281 13.151 13.151C11.3281 14.974 10.4167 17.1875 10.4167 19.7917C10.4167 22.3958 11.3281 24.6094 13.151 26.4323C14.974 28.2552 17.1875 29.1667 19.7917 29.1667Z" fill="#7B7B7B"/>
</g>
</svg>
