<svg width="358" height="456" viewBox="0 0 358 456" fill="none" xmlns="http://www.w3.org/2000/svg">
<path d="M283.081 409.622L271.649 409.621L266.212 365.525L283.085 365.527L283.081 409.622Z" fill="#FFB8B8"/>
<path d="M263.483 406.355H285.53V420.237H249.601C249.601 418.414 249.96 416.609 250.657 414.925C251.355 413.241 252.377 411.71 253.666 410.421C254.956 409.132 256.486 408.11 258.17 407.412C259.854 406.715 261.66 406.355 263.483 406.355Z" fill="#2F2E41"/>
<path d="M166.286 409.622L154.854 409.621L149.417 365.525L166.29 365.527L166.286 409.622Z" fill="#FFB8B8"/>
<path d="M146.688 406.355H168.735V420.237H132.806C132.806 418.414 133.165 416.609 133.862 414.925C134.56 413.241 135.583 411.71 136.872 410.421C138.161 409.132 139.691 408.11 141.375 407.412C143.059 406.715 144.865 406.355 146.688 406.355Z" fill="#2F2E41"/>
<path d="M204.471 82.5333V77.5332C204.471 68.98 207.868 60.7771 213.917 54.729C219.965 48.681 228.167 45.2832 236.721 45.2832C245.274 45.2832 253.477 48.681 259.525 54.729C265.573 60.7771 268.971 68.98 268.971 77.5332V82.5333C268.971 88.6995 266.521 94.6133 262.161 98.9735C257.801 103.334 251.887 105.783 245.721 105.783H227.721C224.668 105.783 221.644 105.182 218.823 104.013C216.003 102.845 213.439 101.132 211.28 98.9735C209.122 96.8145 207.409 94.2515 206.241 91.4307C205.072 88.6098 204.471 85.5865 204.471 82.5333Z" fill="#2F2E41"/>
<path d="M236.721 107.503C250.286 107.503 261.282 96.5066 261.282 82.9419C261.282 69.3772 250.286 58.3809 236.721 58.3809C223.157 58.3809 212.16 69.3772 212.16 82.9419C212.16 96.5066 223.157 107.503 236.721 107.503Z" fill="#FFB8B8"/>
<path d="M103.125 167.356C104.121 166.415 105.312 165.704 106.614 165.273C107.915 164.842 109.295 164.701 110.656 164.861C112.018 165.021 113.328 165.477 114.494 166.198C115.66 166.919 116.653 167.887 117.405 169.033L138.459 165.051L144 177.255L114.188 182.462C112.178 183.597 109.822 183.955 107.566 183.469C105.31 182.982 103.311 181.685 101.947 179.823C100.583 177.961 99.9497 175.664 100.167 173.366C100.384 171.068 101.436 168.93 103.125 167.356Z" fill="#FFB8B8"/>
<path d="M217.848 123.388L183.322 146.132L125.064 164.735C124.291 164.983 123.629 165.492 123.189 166.173C122.749 166.855 122.559 167.668 122.652 168.474L123.923 179.42C123.979 179.905 124.136 180.372 124.383 180.792C124.631 181.213 124.964 181.576 125.36 181.861C125.756 182.145 126.208 182.343 126.685 182.443C127.163 182.542 127.656 182.541 128.133 182.439L182.962 170.686C185.616 170.12 188.125 169.016 190.334 167.44L229.122 139.843C230.528 138.838 231.65 137.485 232.379 135.917C233.107 134.349 233.418 132.619 233.28 130.896C233.138 129.17 232.549 127.511 231.571 126.082C230.593 124.653 229.26 123.503 227.703 122.746C226.146 121.988 224.418 121.649 222.69 121.761C220.962 121.874 219.293 122.434 217.848 123.388Z" fill="#CCCCCC"/>
<path d="M271.853 397.109C270.976 397.109 270.117 396.854 269.382 396.374C268.647 395.894 268.068 395.211 267.715 394.408L215.305 264.907C215.183 264.626 214.978 264.389 214.717 264.229C214.456 264.068 214.152 263.991 213.846 264.008C213.54 264.026 213.247 264.136 213.006 264.325C212.764 264.514 212.587 264.772 212.497 265.065L169.739 391.139C169.558 391.725 169.259 392.269 168.861 392.736C168.463 393.203 167.973 393.584 167.422 393.854C166.871 394.125 166.271 394.28 165.658 394.311C165.045 394.341 164.432 394.245 163.857 394.03L149.519 388.653C148.74 388.364 148.058 387.864 147.546 387.21C147.035 386.556 146.715 385.773 146.622 384.948C140.171 328.756 196.422 186.918 196.991 185.493L197.148 185.098L248.425 196.44L248.532 196.557C268.99 218.875 285.805 359.639 288.969 387.63C289.087 388.641 288.857 389.662 288.316 390.525C287.776 391.388 286.958 392.041 285.998 392.377L273.341 396.853C272.863 397.022 272.36 397.109 271.853 397.109Z" fill="#2F2E41"/>
<path d="M227.672 201.006C215.248 201.006 201.398 198.529 197.134 188.305L197.036 188.071L197.169 187.853C200.534 182.331 204.982 172.912 202.591 171.144C197.882 167.662 195.597 161.934 195.8 154.119C196.24 137.153 207.8 122.09 224.565 116.636C229.245 115.139 234.008 113.913 238.829 112.964C242.343 112.255 245.971 112.333 249.452 113.192C252.933 114.052 256.181 115.672 258.961 117.936C261.777 120.214 264.052 123.088 265.625 126.351C267.198 129.614 268.028 133.184 268.057 136.806C268.233 154.937 265.442 180.19 251.145 197.527C250.475 198.331 249.542 198.873 248.512 199.058C241.634 200.302 234.662 200.954 227.672 201.006Z" fill="#CCCCCC"/>
<path d="M223.051 200.327C223.727 197.902 225.333 195.841 227.52 194.594C229.706 193.346 232.297 193.011 234.729 193.663C235.226 193.802 235.71 193.981 236.177 194.199L252.164 179.65L263.282 187.141L240.42 207.372C239.388 209.233 237.762 210.695 235.803 211.527C233.844 212.358 231.662 212.51 229.607 211.958C228.409 211.63 227.289 211.069 226.31 210.305C225.331 209.542 224.513 208.592 223.903 207.51C223.293 206.428 222.904 205.237 222.758 204.004C222.612 202.771 222.711 201.521 223.051 200.327Z" fill="#FFB8B8"/>
<path d="M249.631 200.511C248.594 200.512 247.589 200.153 246.786 199.496L240.481 194.344C239.956 193.915 239.534 193.372 239.248 192.756C238.962 192.141 238.819 191.469 238.83 190.79C238.84 190.111 239.004 189.444 239.309 188.838C239.614 188.231 240.052 187.702 240.591 187.289L267.032 167.009C267.346 166.767 267.551 166.412 267.604 166.02C267.657 165.628 267.554 165.231 267.316 164.914L250.995 143.338C249.099 140.84 248.148 137.751 248.311 134.619C248.473 131.487 249.739 128.513 251.883 126.224C254.141 123.785 257.234 122.284 260.548 122.019C263.861 121.754 267.153 122.744 269.771 124.793L269.874 124.902L286.916 149.304C288.759 150.749 290.243 152.601 291.252 154.714C292.261 156.827 292.768 159.145 292.733 161.487C292.698 163.828 292.122 166.13 291.051 168.212C289.979 170.294 288.441 172.101 286.556 173.49L252.31 199.629C251.535 200.202 250.596 200.511 249.631 200.511Z" fill="#CCCCCC"/>
<path d="M214.965 76.0338V63.8477L236.72 54.3477L257.465 63.8477V76.0338C257.465 76.5642 257.254 77.0729 256.879 77.448C256.504 77.8231 255.995 78.0338 255.465 78.0338H216.965C216.434 78.0338 215.926 77.8231 215.551 77.448C215.176 77.0729 214.965 76.5642 214.965 76.0338Z" fill="#2F2E41"/>
<path d="M235.723 46.8996C232.524 36.6611 239.242 24.9273 249.173 20.8746C259.105 16.8219 270.987 19.6549 279.367 26.3505C287.747 33.0461 292.947 43.0749 295.702 53.4417C298.457 63.8084 298.98 74.6185 299.488 85.333C311.69 87.5744 319.991 102.047 315.764 113.711C311.537 125.375 295.891 131.17 285.086 125.074C274.281 118.977 271.151 102.589 278.95 92.94C282.64 88.3742 284.701 82.7079 284.807 76.8385C284.913 70.9691 283.058 65.232 279.535 60.536C276.012 55.84 271.024 52.4535 265.359 50.9128C259.695 49.3721 253.678 49.7654 248.262 52.0303C242.248 54.5452 234.702 48.0109 235.723 46.8996Z" fill="#2F2E41"/>
<path d="M98.6143 120.082C84.0049 119.986 69.5782 116.826 56.2662 110.807C55.4737 110.454 54.8011 109.878 54.3303 109.149C53.8594 108.421 53.6107 107.571 53.6143 106.703V70.2852C53.6156 69.0921 54.0902 67.9483 54.9338 67.1046C55.7774 66.261 56.9212 65.7865 58.1143 65.7852H139.114C140.307 65.7865 141.451 66.261 142.295 67.1047C143.138 67.9483 143.613 69.0921 143.614 70.2852V106.703C143.618 107.571 143.369 108.421 142.898 109.149C142.427 109.878 141.755 110.454 140.962 110.807C127.65 116.826 113.224 119.986 98.6143 120.082Z" fill="#6C63FF"/>
<path d="M98.6034 90.5791C98.0029 90.5797 97.4084 90.4601 96.8547 90.2276L32.6228 63.128C31.7945 62.7785 31.0898 62.189 30.5997 61.4354C30.1095 60.6817 29.8564 59.7985 29.8728 58.8997C29.8893 58.0008 30.1747 57.1275 30.6921 56.3923C31.2095 55.6572 31.9353 55.0938 32.7759 54.775L97.0087 30.4072C98.0432 30.013 99.1871 30.0154 100.22 30.4141L163.592 54.7817C164.428 55.1032 165.149 55.6666 165.663 56.4001C166.176 57.1335 166.46 58.0035 166.476 58.8988C166.493 59.7941 166.242 60.674 165.755 61.4259C165.269 62.1778 164.569 62.7676 163.746 63.1197L100.373 90.2188C99.8137 90.4571 99.2116 90.5797 98.6034 90.5791Z" fill="#6C63FF"/>
<path d="M61.1143 113.285C64.428 113.285 67.1143 110.599 67.1143 107.285C67.1143 103.971 64.428 101.285 61.1143 101.285C57.8005 101.285 55.1143 103.971 55.1143 107.285C55.1143 110.599 57.8005 113.285 61.1143 113.285Z" fill="#3F3D56"/>
<path opacity="0.2" d="M163.965 59.2728L100.592 86.372C100.098 86.5833 99.566 86.6928 99.0287 86.6941C98.4913 86.6954 97.9593 86.5884 97.4642 86.3796L33.2323 59.2808C32.4256 58.9486 31.7526 58.357 31.3197 57.5997C31.0364 58.0908 30.8609 58.6365 30.8048 59.2007C30.7487 59.7648 30.8132 60.3345 30.9941 60.8718C31.175 61.4091 31.4681 61.9018 31.854 62.3171C32.2399 62.7324 32.7097 63.0609 33.2323 63.2808L97.4642 90.3796C97.9593 90.5884 98.4913 90.6954 99.0287 90.6941C99.566 90.6928 100.098 90.5833 100.592 90.372L163.965 63.2728C164.485 63.0511 164.952 62.7215 165.335 62.306C165.718 61.8905 166.009 61.3984 166.188 60.8623C166.367 60.3261 166.43 59.7581 166.373 59.1957C166.317 58.6333 166.142 58.0893 165.859 57.5996C165.429 58.3509 164.763 58.9391 163.965 59.2728Z" fill="black"/>
<path d="M61.6182 107.262C61.8834 107.262 62.1378 107.156 62.3253 106.969C62.5128 106.781 62.6182 106.527 62.6182 106.262V72.8003L95.5994 60.7852C95.8646 60.7891 96.1205 60.6875 96.3108 60.5028C96.5012 60.318 96.6103 60.0653 96.6143 59.8C96.6182 59.5348 96.5167 59.2789 96.3319 59.0886C96.1472 58.8982 95.8944 58.7891 95.6292 58.7852L62.648 70.8003C62.3826 70.7942 62.1187 70.842 61.8723 70.9409C61.6259 71.0398 61.4022 71.1876 61.2146 71.3755C61.0251 71.5611 60.8746 71.7828 60.7722 72.0275C60.6697 72.2722 60.6174 72.535 60.6182 72.8003V106.262C60.6182 106.527 60.7235 106.781 60.9111 106.969C61.0986 107.156 61.353 107.262 61.6182 107.262Z" fill="#3F3D56"/>
</svg>
