<svg width="466" height="575" viewBox="0 0 466 575" fill="none" xmlns="http://www.w3.org/2000/svg">
<path d="M406.794 264.5C421.153 264.5 432.794 252.859 432.794 238.5C432.794 224.141 421.153 212.5 406.794 212.5C392.435 212.5 380.794 224.141 380.794 238.5C380.794 252.859 392.435 264.5 406.794 264.5Z" fill="#6C63FF"/>
<path d="M122.794 34.1896V281.809C122.801 287.824 125.194 293.592 129.448 297.845C133.701 302.099 139.468 304.492 145.484 304.499L422.984 304.492C429 304.485 434.767 302.092 439.021 297.838C443.274 293.585 445.667 287.818 445.675 281.802V34.1822C445.667 28.1667 443.274 22.3996 439.021 18.146C434.767 13.8923 429 11.4994 422.984 11.4922L145.484 11.4996C139.468 11.5069 133.701 13.8998 129.448 18.1534C125.194 22.407 122.801 28.1741 122.794 34.1896ZM124.794 34.1896C124.794 28.7023 126.974 23.4397 130.854 19.5596C134.734 15.6795 139.997 13.4996 145.484 13.4996L287.999 13.4922C329.287 13.4922 368.883 29.8937 398.078 59.0885C427.273 88.2833 443.675 127.88 443.675 169.168V281.802C443.675 287.29 441.495 292.552 437.615 296.432C433.734 300.312 428.472 302.492 422.984 302.492L145.484 302.499C139.997 302.499 134.734 300.319 130.854 296.439C126.974 292.559 124.794 287.296 124.794 281.809V34.1896Z" fill="#3F3D56"/>
<path d="M130.261 555.881L144.768 555.88L151.669 499.924L130.258 499.926L130.261 555.881Z" fill="#FFB6B6"/>
<path d="M129.75 571.014L174.36 571.012V570.448C174.36 565.843 172.53 561.426 169.274 558.17C166.018 554.914 161.602 553.085 156.997 553.084H156.996L148.847 546.902L133.643 553.085L129.749 553.085L129.75 571.014Z" fill="#2F2E41"/>
<path d="M66.9786 555.881L81.4856 555.88L88.3866 499.924L66.9756 499.926L66.9786 555.881Z" fill="#FFB6B6"/>
<path d="M66.4685 571.014L111.079 571.012V570.448C111.079 565.843 109.249 561.426 105.993 558.17C102.737 554.914 98.3204 553.085 93.7154 553.084H93.7143L85.5656 546.902L70.362 553.085L66.4678 553.085L66.4685 571.014Z" fill="#2F2E41"/>
<path d="M166.381 250.992C166.381 250.992 180.339 293.861 177.763 299.503C175.186 305.145 170.791 300.75 175.186 305.145C179.582 309.541 183.419 304.868 179.303 312.333C175.186 319.797 168.95 381.246 166.208 384.221C163.465 387.196 159.694 387.276 163.045 390.166C166.395 393.056 170.791 387.196 166.395 393.056C162 398.917 150.336 534.118 150.336 534.118H127.551C127.551 534.118 121.876 527.577 125.088 523.32C128.301 519.062 124.806 517.421 125.088 514.579C125.37 511.737 124.302 505.608 124.103 502.812C123.905 500.015 120.054 433.395 129.305 394.911L112.436 321.634L92.0011 410.199C92.0011 410.199 101.401 484.486 92.0011 508.368C92.0011 508.368 99.5796 514.678 96.2185 518.336C92.8575 521.993 89.9271 519.062 92.8575 521.993C95.7879 524.923 88.462 535.18 88.462 535.18L63.5537 533.714L49.4557 394.911C49.4557 394.911 47.0791 380.435 49.4557 377.955C51.8323 375.474 51.8323 384.265 51.8323 375.474V363.753C51.8323 363.753 53.2089 291.659 53.3924 287.413C53.576 283.167 71.1582 252.398 71.1582 252.398L166.381 250.992Z" fill="#2F2E41"/>
<path d="M166.174 102.93V187.46C163.445 195.644 162.037 204.212 162.004 212.84C162.094 227.21 165.254 243.77 165.244 251.01C165.286 251.97 165.181 252.931 164.934 253.86C150.944 294.41 76.9138 257.56 70.1838 254.11C69.8638 253.95 69.6938 253.86 69.6938 253.86L71.1538 208.44L70.9038 195.38L69.1738 105.79L70.7238 104.55L84.3038 93.7195L85.6338 92.6595L89.7138 98.6095L126.084 96.1095L139.964 92.2695L144.294 94.0295L163.814 101.97L166.174 102.93Z" fill="#6C63FF"/>
<path d="M292.928 169.356L267.441 160.93L260.596 174.818L287.859 182.768C288.751 184.183 290.019 185.32 291.521 186.054C293.023 186.787 294.7 187.087 296.364 186.919C298.027 186.751 299.611 186.123 300.936 185.105C302.262 184.086 303.278 182.719 303.869 181.155C304.46 179.591 304.603 177.893 304.282 176.253C303.961 174.612 303.189 173.094 302.052 171.868C300.915 170.642 299.459 169.757 297.847 169.314C296.236 168.87 294.532 168.885 292.928 169.356Z" fill="#FFB6B6"/>
<path d="M141.485 94.707L141.38 95.1289C139.388 103.097 136.845 125.854 142.294 131.999C149.291 139.9 205.811 164.02 217.039 162.055C225.748 160.531 223.955 161.043 228.121 165.378C232.288 169.712 225.372 170.725 234.666 171.483C243.96 172.242 244.146 168.683 246.136 172.63C248.127 176.577 246.356 178.955 252.681 178.735C259.007 178.516 260.592 179.696 262.768 180.084C264.944 180.472 278.607 186.949 278.607 186.949C278.607 186.949 284.088 171.312 290.987 165.357C290.987 165.357 275.165 163.435 273.967 160.079C272.769 156.722 273.748 153.753 269.598 154.361C265.449 154.968 263.29 159.523 263.863 153.788C264.436 148.053 234.546 136.888 234.546 136.888C216.508 119.128 179.447 106.789 141.485 94.707Z" fill="#6C63FF"/>
<path d="M60.6198 271.252L59.4637 244.432L44.0508 242.955L46.282 271.267C45.2754 272.601 44.661 274.19 44.508 275.855C44.355 277.52 44.6693 279.194 45.4157 280.69C46.1621 282.186 47.311 283.444 48.7331 284.322C50.1553 285.201 51.7943 285.666 53.4661 285.664C55.1378 285.662 56.7759 285.194 58.1962 284.312C59.6165 283.431 60.7627 282.17 61.5059 280.673C62.2492 279.176 62.56 277.501 62.4034 275.836C62.2469 274.172 61.6292 272.584 60.6198 271.252Z" fill="#FFB6B6"/>
<path d="M76.7319 103.18L76.3 103.231C72.2825 103.705 68.441 105.151 65.1082 107.444C61.7755 109.736 59.0518 112.807 57.173 116.39C52.2657 125.733 36.7409 189.017 40.5422 197.702C44.0872 205.801 43.9405 203.81 41.3644 209.242C38.7882 214.675 35.3899 208.567 37.9755 217.527C40.5611 226.486 43.9547 225.398 40.9698 228.658C37.985 231.919 35.1332 231.106 37.5809 236.943C40.0286 242.779 39.4868 244.68 39.8955 246.853C40.3043 249.025 39.0922 264.096 39.0922 264.096C39.0922 264.096 55.6563 263.678 63.6698 268.018C63.6698 268.018 59.8579 252.542 62.5719 250.232C65.2859 247.922 68.4086 247.784 66.3696 244.12C64.3306 240.455 59.3066 240.051 64.8724 238.554C70.4382 237.057 70.2814 205.15 70.2814 205.15L76.7319 103.18Z" fill="#6C63FF"/>
<path d="M116.444 69.0009C115.794 69.1509 115.144 69.2809 114.494 69.3809C112.508 69.7071 110.492 69.811 108.484 69.6909C103.251 69.41 98.1993 67.6853 93.8876 64.7082C89.5758 61.7311 86.1729 57.6179 84.0562 52.8248C81.9395 48.0316 81.1918 42.7459 81.896 37.5537C82.6002 32.3615 84.7288 27.4658 88.0456 23.4096C91.3625 19.3534 95.738 16.2951 100.687 14.574C105.636 12.8529 110.965 12.5361 116.083 13.6589C121.201 14.7817 125.908 17.3001 129.682 20.9349C133.456 24.5697 136.149 29.1787 137.464 34.2509C137.524 34.4809 137.584 34.7009 137.634 34.9309C139.34 42.2587 138.066 49.9642 134.093 56.3531C130.119 62.7421 123.771 67.2914 116.444 69.0009Z" fill="#FFB6B6"/>
<path d="M90.2611 65.6524C86.3155 62.5645 85.9326 56.6789 82.5656 52.9687C76.9362 46.7655 74.2914 40.0917 77.2402 32.7414C79.8485 26.2403 79.2941 18.2488 84.9116 14.0642C82.1526 13.0654 81.5033 10.9913 83.9377 10.953C85.5793 10.9272 91.6991 14.0647 88.7544 10.1562C85.8097 6.24773 91.3838 7.79051 91.0151 6.19063C90.6464 4.59075 88.2822 3.70462 87.2395 4.97282C90.5685 1.07221 97.8383 1.90382 100.2 6.45543C103.518 1.48271 107.04 -1.93899 112.118 1.21669C117.104 4.31604 117.039 8.14728 122.402 7.22653C124.923 6.7937 125.161 11.5565 126.883 13.4477C128.605 15.3389 131.123 16.8026 133.636 16.3276C136.149 15.8526 138.071 12.7204 136.663 10.5852L142.587 24.0995L144.974 21.171C148.768 23.6433 147.522 30.0944 143.703 32.5279C139.885 34.9613 132.597 29.3369 130.525 33.3627C127.258 39.7089 119.595 36.5043 114.332 32.0195C107.95 26.5805 100.247 43.1178 103.322 50.9184C100.132 47.7862 94.2311 50.3855 92.5787 54.5394C90.9263 58.6932 92.138 63.3732 93.3629 67.6726L90.2611 65.6524Z" fill="#2F2E41"/>
<path d="M404.786 238.526H320.694C318.512 238.523 316.42 237.656 314.877 236.113C313.334 234.57 312.466 232.478 312.464 230.296V147.23C312.466 145.048 313.334 142.956 314.877 141.413C316.42 139.87 318.512 139.002 320.694 139H404.786C406.968 139.002 409.06 139.87 410.602 141.413C412.145 142.956 413.013 145.048 413.016 147.23V230.296C413.013 232.478 412.145 234.57 410.602 236.113C409.06 237.656 406.968 238.523 404.786 238.526Z" fill="#E6E6E6"/>
<path d="M390.786 231.526H306.694C304.512 231.523 302.42 230.656 300.877 229.113C299.334 227.57 298.466 225.478 298.464 223.296V140.23C298.466 138.048 299.334 135.956 300.877 134.413C302.42 132.87 304.512 132.002 306.694 132H390.786C392.968 132.002 395.06 132.87 396.602 134.413C398.145 135.956 399.013 138.048 399.016 140.23V223.296C399.013 225.478 398.145 227.57 396.602 229.113C395.06 230.656 392.968 231.523 390.786 231.526Z" fill="#E6E6E6"/>
<path d="M322.354 134.451C316.669 134.451 311.216 136.71 307.195 140.73C303.175 144.751 300.916 150.204 300.916 155.89V221.533C300.916 222.523 301.111 223.503 301.49 224.418C301.869 225.333 302.424 226.164 303.124 226.864C303.825 227.564 304.656 228.12 305.571 228.499C306.486 228.878 307.466 229.073 308.456 229.073H359.876C364.694 229.073 369.465 228.124 373.916 226.28C378.367 224.436 382.411 221.734 385.818 218.327C389.225 214.921 391.927 210.876 393.771 206.425C395.614 201.974 396.563 197.203 396.563 192.385V141.991C396.563 139.992 395.769 138.074 394.355 136.66C392.941 135.246 391.023 134.451 389.023 134.451H322.354Z" fill="white"/>
<path d="M371.262 158.592H326.041C325.626 158.592 325.228 158.427 324.935 158.134C324.641 157.84 324.477 157.442 324.477 157.027C324.477 156.612 324.641 156.215 324.935 155.921C325.228 155.628 325.626 155.463 326.041 155.463H371.262C371.677 155.463 372.075 155.628 372.368 155.921C372.661 156.215 372.826 156.612 372.826 157.027C372.826 157.442 372.661 157.84 372.368 158.134C372.075 158.427 371.677 158.592 371.262 158.592Z" fill="#E6E6E6"/>
<path d="M371.262 191.955H326.041C325.835 191.956 325.632 191.916 325.441 191.837C325.251 191.759 325.078 191.644 324.932 191.498C324.787 191.353 324.671 191.18 324.592 190.99C324.513 190.8 324.473 190.597 324.473 190.391C324.473 190.185 324.513 189.981 324.592 189.791C324.671 189.601 324.787 189.428 324.932 189.283C325.078 189.138 325.251 189.023 325.441 188.944C325.632 188.866 325.835 188.826 326.041 188.826H371.262C371.676 188.827 372.073 188.993 372.366 189.286C372.658 189.579 372.822 189.976 372.822 190.391C372.822 190.805 372.658 191.202 372.366 191.496C372.073 191.789 371.676 191.954 371.262 191.955Z" fill="#E6E6E6"/>
<path d="M389.625 175.283H307.678C307.263 175.283 306.865 175.119 306.572 174.825C306.278 174.532 306.113 174.134 306.113 173.719C306.113 173.304 306.278 172.906 306.572 172.613C306.865 172.319 307.263 172.154 307.678 172.154H389.625C390.04 172.154 390.438 172.319 390.731 172.613C391.024 172.906 391.189 173.304 391.189 173.719C391.189 174.134 391.024 174.532 390.731 174.825C390.438 175.119 390.04 175.283 389.625 175.283Z" fill="#E6E6E6"/>
<path d="M390.461 205.522H360.858C360.652 205.522 360.449 205.481 360.259 205.403C360.069 205.324 359.897 205.209 359.751 205.063C359.606 204.918 359.491 204.746 359.412 204.556C359.333 204.366 359.293 204.163 359.293 203.957C359.293 203.752 359.333 203.548 359.412 203.358C359.491 203.169 359.606 202.996 359.751 202.851C359.897 202.706 360.069 202.59 360.259 202.512C360.449 202.433 360.652 202.393 360.858 202.393H390.461C390.876 202.393 391.274 202.557 391.567 202.851C391.861 203.144 392.026 203.542 392.026 203.957C392.026 204.372 391.861 204.77 391.567 205.063C391.274 205.357 390.876 205.522 390.461 205.522Z" fill="#E6E6E6"/>
<path d="M108.483 69.6909L114.493 69.3809C112.508 69.707 110.492 69.811 108.483 69.6909Z" fill="#F2F2F2"/>
<path d="M144.294 94.0294L143.304 95.2894L140.644 98.6694L117.674 127.879L84.3037 93.7194L85.6337 92.6594L92.7137 77.6094L129.084 75.1094L139.964 92.2694L144.294 94.0294Z" fill="#3F3D56"/>
</svg>
