<svg width="1788" height="498" viewBox="0 0 1788 498" fill="none" xmlns="http://www.w3.org/2000/svg">
<g filter="url(#filter0_d_453_1203)">
<g clip-path="url(#clip0_453_1203)">
<rect x="34.2344" y="34.5059" width="416.154" height="416.154" rx="57.8997" fill="white"/>
<path d="M124.788 351.802C120.487 364.413 127.223 378.122 139.833 382.423C152.444 386.724 166.153 379.988 170.454 367.378L124.788 351.802ZM236.28 99.6445L259.035 91.6306C255.621 81.9358 246.439 75.469 236.16 75.52C225.882 75.571 216.765 82.1286 213.447 91.8568L236.28 99.6445ZM296.153 342.273L304.167 365.028L349.676 349L341.663 326.245L296.153 342.273ZM170.454 367.378L259.113 107.432L213.447 91.8568L124.788 351.802L170.454 367.378ZM213.525 107.658L296.153 342.273L341.663 326.245L259.035 91.6306L213.525 107.658Z" fill="#3F93A5"/>
<path d="M259.036 91.6306C254.61 79.0634 240.834 72.4636 228.267 76.8896C215.7 81.3156 209.1 95.0913 213.526 107.658L259.036 91.6306ZM296.154 342.273L304.168 365.028L349.678 349L341.664 326.245L296.154 342.273ZM213.526 107.658L296.154 342.273L341.664 326.245L259.036 91.6306L213.526 107.658Z" fill="#4EB0C6"/>
<path d="M365.662 235.076C340.898 257.105 310.908 272.431 278.547 279.593C246.185 286.754 212.529 285.515 180.782 275.991" stroke="#56C7E0" stroke-width="51.8684" stroke-linecap="round"/>
<path fill-rule="evenodd" clip-rule="evenodd" d="M330.969 390.805C335.973 395.62 344.325 392.672 345.199 385.783L349.88 348.892L304.17 365.023L330.969 390.805ZM319.89 368.43L329.9 378.061C332.76 380.811 337.532 379.127 338.032 375.191L339.78 361.41L319.89 368.43Z" fill="#4EB0C6"/>
</g>
</g>
<path d="M543.582 335.082L598.231 161.746H640.723L695.371 335.082H665.519L615.926 179.562H622.426L573.435 335.082H543.582ZM574.037 297.526V270.442H665.038V297.526H574.037ZM716.894 335.082L717.134 161.746H746.505V267.674L794.052 205.08H830.284L779.848 270.081L834.617 335.082H796.219L746.505 272.489V335.082H716.894ZM883.027 338.693C873.638 338.693 865.694 336.928 859.194 333.397C852.694 329.786 847.759 325.011 844.388 319.073C841.098 313.134 839.453 306.594 839.453 299.452C839.453 293.193 840.496 287.575 842.583 282.6C844.669 277.544 847.879 273.211 852.212 269.6C856.546 265.908 862.163 262.899 869.064 260.572C874.28 258.887 880.379 257.362 887.361 255.998C894.423 254.633 902.046 253.39 910.232 252.266C918.497 251.062 927.124 249.778 936.111 248.414L925.76 254.312C925.84 245.325 923.834 238.704 919.741 234.451C915.648 230.198 908.747 228.071 899.037 228.071C893.179 228.071 887.521 229.436 882.065 232.164C876.608 234.892 872.796 239.587 870.629 246.248L844.147 237.942C847.357 226.948 853.456 218.121 862.444 211.46C871.512 204.799 883.71 201.469 899.037 201.469C910.593 201.469 920.744 203.355 929.491 207.127C938.318 210.898 944.859 217.077 949.112 225.664C951.439 230.238 952.843 234.933 953.325 239.747C953.806 244.482 954.047 249.658 954.047 255.275V335.082H928.648V306.915L932.861 311.489C927.003 320.878 920.142 327.779 912.278 332.193C904.494 336.526 894.744 338.693 883.027 338.693ZM888.805 315.582C895.386 315.582 901.003 314.418 905.657 312.091C910.312 309.764 914.003 306.915 916.732 303.545C919.54 300.174 921.426 297.004 922.389 294.035C923.914 290.344 924.756 286.131 924.917 281.396C925.158 276.581 925.278 272.689 925.278 269.72L934.186 272.368C925.439 273.732 917.935 274.936 911.676 275.979C905.417 277.023 900.04 278.026 895.546 278.989C891.052 279.871 887.08 280.875 883.629 281.998C880.259 283.202 877.41 284.606 875.083 286.211C872.756 287.816 870.95 289.662 869.666 291.748C868.462 293.835 867.861 296.282 867.861 299.091C867.861 302.301 868.663 305.15 870.268 307.637C871.873 310.045 874.2 311.971 877.25 313.415C880.379 314.86 884.231 315.582 888.805 315.582ZM1037.51 338.693C1025.55 338.693 1015.12 335.684 1006.21 329.665C997.302 323.647 990.4 315.461 985.505 305.109C980.61 294.757 978.163 283.081 978.163 270.081C978.163 256.921 980.61 245.204 985.505 234.933C990.481 224.581 997.502 216.435 1006.57 210.497C1015.64 204.479 1026.31 201.469 1038.59 201.469C1050.95 201.469 1061.3 204.479 1069.65 210.497C1078.07 216.435 1084.45 224.581 1088.78 234.933C1093.12 245.285 1095.28 257.001 1095.28 270.081C1095.28 283.001 1093.12 294.677 1088.78 305.109C1084.45 315.461 1077.99 323.647 1069.4 329.665C1060.82 335.684 1050.19 338.693 1037.51 338.693ZM1041.96 312.693C1049.74 312.693 1056 310.927 1060.74 307.396C1065.55 303.785 1069.04 298.77 1071.21 292.35C1073.46 285.93 1074.58 278.507 1074.58 270.081C1074.58 261.575 1073.46 254.152 1071.21 247.812C1069.04 241.393 1065.63 236.417 1060.98 232.886C1056.32 229.275 1050.31 227.47 1042.92 227.47C1035.14 227.47 1028.72 229.395 1023.66 233.247C1018.61 237.019 1014.88 242.155 1012.47 248.655C1010.06 255.075 1008.86 262.217 1008.86 270.081C1008.86 278.026 1010.02 285.248 1012.35 291.748C1014.76 298.168 1018.41 303.264 1023.3 307.035C1028.2 310.807 1034.42 312.693 1041.96 312.693ZM1074.58 335.082V243.84H1070.97V161.746H1100.22V335.082H1074.58ZM1193.07 338.693C1179.91 338.693 1168.36 335.844 1158.4 330.147C1148.45 324.449 1140.67 316.545 1135.05 306.434C1129.52 296.322 1126.75 284.686 1126.75 271.526C1126.75 257.322 1129.48 245.004 1134.93 234.571C1140.39 224.059 1147.97 215.914 1157.68 210.136C1167.39 204.358 1178.63 201.469 1191.39 201.469C1204.87 201.469 1216.3 204.639 1225.69 210.979C1235.16 217.238 1242.18 226.105 1246.76 237.581C1251.33 249.056 1253.06 262.578 1251.93 278.146H1223.16V267.553C1223.08 253.43 1220.6 243.118 1215.7 236.618C1210.81 230.118 1203.1 226.868 1192.59 226.868C1180.71 226.868 1171.89 230.559 1166.11 237.942C1160.33 245.244 1157.44 255.958 1157.44 270.081C1157.44 283.242 1160.33 293.433 1166.11 300.656C1171.89 307.878 1180.31 311.489 1191.39 311.489C1198.53 311.489 1204.67 309.924 1209.8 306.795C1215.02 303.585 1219.03 298.97 1221.84 292.952L1250.49 301.619C1245.51 313.335 1237.81 322.443 1227.38 328.943C1217.03 335.443 1205.59 338.693 1193.07 338.693ZM1148.29 278.146V256.238H1237.73V278.146H1148.29ZM1431.39 335.082V256.118C1431.39 247.211 1429.18 240.269 1424.77 235.294C1420.35 230.238 1414.37 227.71 1406.83 227.71C1402.18 227.71 1398 228.794 1394.31 230.96C1390.62 233.047 1387.69 236.176 1385.53 240.349C1383.36 244.442 1382.28 249.337 1382.28 255.035L1369.4 247.451C1369.32 238.464 1371.32 230.559 1375.41 223.738C1379.59 216.837 1385.2 211.46 1392.27 207.608C1399.33 203.756 1407.19 201.83 1415.86 201.83C1430.22 201.83 1441.22 206.164 1448.84 214.83C1456.55 223.417 1460.4 234.732 1460.4 248.775V335.082H1431.39ZM1275.02 335.082V205.08H1300.66V245.405H1304.27V335.082H1275.02ZM1353.39 335.082V256.479C1353.39 247.411 1351.18 240.349 1346.77 235.294C1342.35 230.238 1336.33 227.71 1328.71 227.71C1321.33 227.71 1315.39 230.238 1310.9 235.294C1306.48 240.349 1304.27 246.93 1304.27 255.035L1291.27 246.368C1291.27 237.942 1293.36 230.358 1297.53 223.618C1301.71 216.877 1307.32 211.58 1314.39 207.729C1321.53 203.796 1329.51 201.83 1338.34 201.83C1348.05 201.83 1356.15 203.917 1362.65 208.09C1369.24 212.182 1374.13 217.8 1377.34 224.942C1380.63 232.004 1382.28 239.988 1382.28 248.896V335.082H1353.39ZM1494.2 185.339V158.737H1523.21V185.339H1494.2ZM1494.2 335.082V205.08H1523.21V335.082H1494.2ZM1595.62 338.693C1586.23 338.693 1578.29 336.928 1571.79 333.397C1565.29 329.786 1560.35 325.011 1556.98 319.073C1553.69 313.134 1552.05 306.594 1552.05 299.452C1552.05 293.193 1553.09 287.575 1555.17 282.6C1557.26 277.544 1560.47 273.211 1564.8 269.6C1569.14 265.908 1574.76 262.899 1581.66 260.572C1586.87 258.887 1592.97 257.362 1599.95 255.998C1607.02 254.633 1614.64 253.39 1622.82 252.266C1631.09 251.062 1639.72 249.778 1648.7 248.414L1638.35 254.312C1638.43 245.325 1636.43 238.704 1632.33 234.451C1628.24 230.198 1621.34 228.071 1611.63 228.071C1605.77 228.071 1600.11 229.436 1594.66 232.164C1589.2 234.892 1585.39 239.587 1583.22 246.248L1556.74 237.942C1559.95 226.948 1566.05 218.121 1575.04 211.46C1584.1 204.799 1596.3 201.469 1611.63 201.469C1623.18 201.469 1633.34 203.355 1642.08 207.127C1650.91 210.898 1657.45 217.077 1661.7 225.664C1664.03 230.238 1665.44 234.933 1665.92 239.747C1666.4 244.482 1666.64 249.658 1666.64 255.275V335.082H1641.24V306.915L1645.45 311.489C1639.6 320.878 1632.73 327.779 1624.87 332.193C1617.09 336.526 1607.34 338.693 1595.62 338.693ZM1601.4 315.582C1607.98 315.582 1613.6 314.418 1618.25 312.091C1622.9 309.764 1626.6 306.915 1629.32 303.545C1632.13 300.174 1634.02 297.004 1634.98 294.035C1636.51 290.344 1637.35 286.131 1637.51 281.396C1637.75 276.581 1637.87 272.689 1637.87 269.72L1646.78 272.368C1638.03 273.732 1630.53 274.936 1624.27 275.979C1618.01 277.023 1612.63 278.026 1608.14 278.989C1603.64 279.871 1599.67 280.875 1596.22 281.998C1592.85 283.202 1590 284.606 1587.68 286.211C1585.35 287.816 1583.54 289.662 1582.26 291.748C1581.05 293.835 1580.45 296.282 1580.45 299.091C1580.45 302.301 1581.26 305.15 1582.86 307.637C1584.47 310.045 1586.79 311.971 1589.84 313.415C1592.97 314.86 1596.82 315.582 1601.4 315.582Z" fill="black"/>
<defs>
<filter id="filter0_d_453_1203" x="0.633144" y="0.904629" width="496.343" height="496.343" filterUnits="userSpaceOnUse" color-interpolation-filters="sRGB">
<feFlood flood-opacity="0" result="BackgroundImageFix"/>
<feColorMatrix in="SourceAlpha" type="matrix" values="0 0 0 0 0 0 0 0 0 0 0 0 0 0 0 0 0 0 127 0" result="hardAlpha"/>
<feOffset dx="6.49299" dy="6.49299"/>
<feGaussianBlur stdDeviation="20.0471"/>
<feComposite in2="hardAlpha" operator="out"/>
<feColorMatrix type="matrix" values="0 0 0 0 0 0 0 0 0 0 0 0 0 0 0 0 0 0 0.12 0"/>
<feBlend mode="normal" in2="BackgroundImageFix" result="effect1_dropShadow_453_1203"/>
<feBlend mode="normal" in="SourceGraphic" in2="effect1_dropShadow_453_1203" result="shape"/>
</filter>
<clipPath id="clip0_453_1203">
<rect x="34.2344" y="34.5059" width="416.154" height="416.154" rx="57.8997" fill="white"/>
</clipPath>
</defs>
</svg>
